<?xml version="1.0" encoding="utf-8"?>
<!-- Generator: Adobe Illustrator 24.0.2, SVG Export Plug-In . SVG Version: 6.00 Build 0)  -->
<svg version="1.1" id="Layer_1" xmlns="http://www.w3.org/2000/svg" xmlns:xlink="http://www.w3.org/1999/xlink" x="0px" y="0px"
	 viewBox="0 0 1080 313" style="enable-background:new 0 0 1080 313;" xml:space="preserve">
<style type="text/css">
	.st0{display:none;}
	.st1{display:inline;}
	.st2{fill:#1BAD99;}
	.st3{fill:#FFFFFF;}
</style>
<g class="st0">
	<defs>
		<rect id="SVGID_1_" x="-822" y="-320" width="180" height="152"/>
	</defs>
	<clipPath id="SVGID_2_" class="st1">
		<use xlink:href="#SVGID_1_"  style="overflow:visible;"/>
	</clipPath>
</g>
<g>
	<path class="st2" d="M307.2,129.9l-2.4-2.4l-33.9,33.9h0l-33.2,33.2h0l-33.9,33.9l35.9,35.9l33.5-33.5h0l33.5-33.5l0.4-0.4
		C325.7,178.5,325.7,148.4,307.2,129.9z"/>
	<path class="st2" d="M165.5,123.2c-18.5,18.5-18.5,48.6,0,67.1l2.7,2.7l33.9-33.9h0l33.2-33.2l0,0L269.3,92L233,55.7l-33.5,33.5
		l0,0L165.5,123.2L165.5,123.2z"/>
	<path class="st2" d="M170.6,261.7l-35.5-35.5l-0.4-0.4l-35.5-35.5h0l-2.6-2.6c-18.4-18.4-18.4-48.2,0-66.6l0.2-0.2h0L130,87.7h0
		l33.5-33.5h0l33.5-33.5h-66.3H130h-5.5L94.1,51.1l0,0L60.2,85h0l-4.1,4.1c-16.7,16.7-26.1,39.3-26.1,63s9.4,46.3,26.1,63l8.8,8.8
		l0.4,0.4l35.5,35.5l0,0l34.6,34.6h2.5h0.7h64.6L171,262.1L170.6,261.7z"/>
</g>
<g>
	<g>
		<path class="st3" d="M407.1,250.2h-20.7v-37.1h20.7v3.8h-16.4v12h15.4v3.8h-15.4v13.7h16.4V250.2z"/>
		<path class="st3" d="M440.1,250.2h-4.9l-10-16.3L415,250.2h-4.6l12.3-19.4l-11.5-17.7h4.8l9.2,14.7l9.3-14.7h4.6l-11.5,17.6
			L440.1,250.2z"/>
		<path class="st3" d="M468.9,223.9c0,3.8-1.3,6.7-3.8,8.7c-2.6,2-6.2,3-11,3h-4.4v14.6h-4.3v-37.1h9.6
			C464.3,213.1,468.9,216.7,468.9,223.9z M449.7,231.9h3.9c3.8,0,6.6-0.6,8.3-1.9c1.7-1.2,2.6-3.2,2.6-5.9c0-2.5-0.8-4.3-2.4-5.5
			c-1.6-1.2-4.1-1.8-7.5-1.8h-4.8V231.9z"/>
		<path class="st3" d="M500.1,250.2l-4.6-11.8h-14.9l-4.6,11.8h-4.4l14.7-37.3h3.6l14.6,37.3H500.1z M494.1,234.5l-4.3-11.5
			c-0.6-1.5-1.1-3.2-1.7-5.4c-0.4,1.6-0.9,3.4-1.6,5.4l-4.4,11.5H494.1z"/>
		<path class="st3" d="M538.6,250.2h-4.9L513.4,219h-0.2c0.3,3.7,0.4,7,0.4,10.1v21.1h-4v-37.1h4.9l20.2,31h0.2
			c0-0.5-0.1-1.9-0.2-4.4c-0.1-2.5-0.2-4.3-0.1-5.3v-21.3h4V250.2z"/>
		<path class="st3" d="M569.8,240.3c0,3.3-1.2,5.8-3.6,7.6c-2.4,1.8-5.6,2.7-9.7,2.7c-4.4,0-7.8-0.6-10.2-1.7v-4.2
			c1.5,0.6,3.2,1.2,5,1.5s3.6,0.6,5.3,0.6c2.9,0,5-0.5,6.5-1.6c1.5-1.1,2.2-2.6,2.2-4.6c0-1.3-0.3-2.3-0.8-3.2
			c-0.5-0.8-1.4-1.6-2.6-2.3c-1.2-0.7-3.1-1.5-5.5-2.4c-3.5-1.2-5.9-2.7-7.4-4.4c-1.5-1.7-2.2-3.9-2.2-6.6c0-2.9,1.1-5.1,3.2-6.8
			c2.2-1.7,5-2.5,8.5-2.5c3.7,0,7.1,0.7,10.2,2l-1.3,3.8c-3.1-1.3-6-1.9-8.9-1.9c-2.3,0-4.1,0.5-5.4,1.5c-1.3,1-1.9,2.3-1.9,4.1
			c0,1.3,0.2,2.3,0.7,3.2c0.5,0.8,1.3,1.6,2.4,2.3c1.1,0.7,2.8,1.4,5.2,2.3c3.9,1.4,6.6,2.9,8,4.5
			C569.1,235.7,569.8,237.8,569.8,240.3z"/>
		<path class="st3" d="M577.4,250.2v-37.1h4.3v37.1H577.4z"/>
		<path class="st3" d="M624.1,231.6c0,5.9-1.5,10.6-4.5,14c-3,3.4-7.2,5.1-12.5,5.1c-5.5,0-9.7-1.7-12.7-5c-3-3.3-4.5-8.1-4.5-14.2
			c0-6,1.5-10.7,4.5-14.1c3-3.3,7.2-5,12.7-5c5.3,0,9.5,1.7,12.5,5.1C622.7,220.9,624.1,225.6,624.1,231.6z M594.6,231.6
			c0,5,1.1,8.8,3.2,11.4c2.1,2.6,5.3,3.9,9.3,3.9c4.1,0,7.2-1.3,9.3-3.9c2.1-2.6,3.2-6.4,3.2-11.5c0-5-1-8.8-3.1-11.4
			s-5.2-3.9-9.3-3.9c-4.1,0-7.2,1.3-9.4,3.9C595.6,222.8,594.6,226.6,594.6,231.6z"/>
		<path class="st3" d="M661.4,250.2h-4.9L636.2,219H636c0.3,3.7,0.4,7,0.4,10.1v21.1h-4v-37.1h4.9l20.2,31h0.2
			c0-0.5-0.1-1.9-0.2-4.4c-0.1-2.5-0.2-4.3-0.1-5.3v-21.3h4V250.2z"/>
		<path class="st3" d="M679.8,260c-1.6,0-2.8-0.2-3.8-0.7v-3.7c1.2,0.3,2.5,0.5,3.8,0.5c1.7,0,3-0.5,3.8-1.5c0.9-1,1.3-2.5,1.3-4.4
			v-37.1h4.3v36.8c0,3.2-0.8,5.7-2.4,7.5C685.1,259.1,682.8,260,679.8,260z"/>
		<path class="st3" d="M731.3,231.6c0,5.9-1.5,10.6-4.5,14c-3,3.4-7.2,5.1-12.5,5.1c-5.5,0-9.7-1.7-12.7-5c-3-3.3-4.5-8.1-4.5-14.2
			c0-6,1.5-10.7,4.5-14.1c3-3.3,7.2-5,12.7-5c5.3,0,9.5,1.7,12.5,5.1C729.8,220.9,731.3,225.6,731.3,231.6z M701.7,231.6
			c0,5,1.1,8.8,3.2,11.4c2.1,2.6,5.3,3.9,9.3,3.9c4.1,0,7.2-1.3,9.3-3.9c2.1-2.6,3.2-6.4,3.2-11.5c0-5-1-8.8-3.1-11.4
			c-2.1-2.6-5.2-3.9-9.3-3.9c-4.1,0-7.2,1.3-9.4,3.9C702.8,222.8,701.7,226.6,701.7,231.6z"/>
		<path class="st3" d="M739.6,250.2v-37.1h4.3v37.1H739.6z"/>
		<path class="st3" d="M783.1,250.2h-4.9L757.9,219h-0.2c0.3,3.7,0.4,7,0.4,10.1v21.1h-4v-37.1h4.9l20.2,31h0.2
			c0-0.5-0.1-1.9-0.2-4.4c-0.1-2.5-0.2-4.3-0.1-5.3v-21.3h4V250.2z"/>
		<path class="st3" d="M804.7,250.2h-4.3v-33.3h-11.8v-3.8h27.8v3.8h-11.8V250.2z"/>
		<path class="st3" d="M856.6,240.3c0,3.3-1.2,5.8-3.6,7.6c-2.4,1.8-5.6,2.7-9.7,2.7c-4.4,0-7.8-0.6-10.2-1.7v-4.2
			c1.5,0.6,3.2,1.2,5,1.5s3.6,0.6,5.3,0.6c2.9,0,5-0.5,6.5-1.6c1.5-1.1,2.2-2.6,2.2-4.6c0-1.3-0.3-2.3-0.8-3.2
			c-0.5-0.8-1.4-1.6-2.6-2.3c-1.2-0.7-3.1-1.5-5.5-2.4c-3.5-1.2-5.9-2.7-7.4-4.4c-1.5-1.7-2.2-3.9-2.2-6.6c0-2.9,1.1-5.1,3.2-6.8
			c2.2-1.7,5-2.5,8.5-2.5c3.7,0,7.1,0.7,10.2,2l-1.3,3.8c-3.1-1.3-6-1.9-8.9-1.9c-2.3,0-4.1,0.5-5.4,1.5c-1.3,1-1.9,2.3-1.9,4.1
			c0,1.3,0.2,2.3,0.7,3.2c0.5,0.8,1.3,1.6,2.4,2.3c1.1,0.7,2.8,1.4,5.2,2.3c3.9,1.4,6.6,2.9,8,4.5
			C855.8,235.7,856.6,237.8,856.6,240.3z"/>
		<path class="st3" d="M873.6,231.6l9.9-18.6h4.7l-12.4,22.7v14.4h-4.4V236l-12.4-22.9h4.7L873.6,231.6z"/>
		<path class="st3" d="M914.3,240.3c0,3.3-1.2,5.8-3.6,7.6c-2.4,1.8-5.6,2.7-9.7,2.7c-4.4,0-7.8-0.6-10.2-1.7v-4.2
			c1.5,0.6,3.2,1.2,5,1.5c1.8,0.4,3.6,0.6,5.3,0.6c2.9,0,5-0.5,6.5-1.6c1.5-1.1,2.2-2.6,2.2-4.6c0-1.3-0.3-2.3-0.8-3.2
			c-0.5-0.8-1.4-1.6-2.6-2.3c-1.2-0.7-3.1-1.5-5.5-2.4c-3.5-1.2-5.9-2.7-7.4-4.4c-1.5-1.7-2.2-3.9-2.2-6.6c0-2.9,1.1-5.1,3.2-6.8
			c2.2-1.7,5-2.5,8.5-2.5c3.7,0,7.1,0.7,10.2,2l-1.3,3.8c-3.1-1.3-6-1.9-8.9-1.9c-2.3,0-4.1,0.5-5.4,1.5c-1.3,1-1.9,2.3-1.9,4.1
			c0,1.3,0.2,2.3,0.7,3.2c0.5,0.8,1.3,1.6,2.4,2.3c1.1,0.7,2.8,1.4,5.2,2.3c3.9,1.4,6.6,2.9,8,4.5
			C913.5,235.7,914.3,237.8,914.3,240.3z"/>
		<path class="st3" d="M933.3,250.2H929v-33.3h-11.8v-3.8h27.8v3.8h-11.8V250.2z"/>
		<path class="st3" d="M971.3,250.2h-20.7v-37.1h20.7v3.8H955v12h15.4v3.8H955v13.7h16.4V250.2z"/>
		<path class="st3" d="M996,250.2l-12.6-32.9h-0.2c0.2,2.6,0.4,5.7,0.4,9.3v23.6h-4v-37.1h6.5l11.8,30.6h0.2l11.9-30.6h6.5v37.1
			h-4.3v-23.9c0-2.7,0.1-5.7,0.4-8.9h-0.2l-12.7,32.9H996z"/>
		<path class="st3" d="M1047.5,240.3c0,3.3-1.2,5.8-3.6,7.6c-2.4,1.8-5.6,2.7-9.7,2.7c-4.4,0-7.8-0.6-10.2-1.7v-4.2
			c1.5,0.6,3.2,1.2,5,1.5s3.6,0.6,5.3,0.6c2.9,0,5-0.5,6.5-1.6c1.5-1.1,2.2-2.6,2.2-4.6c0-1.3-0.3-2.3-0.8-3.2
			c-0.5-0.8-1.4-1.6-2.6-2.3c-1.2-0.7-3.1-1.5-5.5-2.4c-3.5-1.2-5.9-2.7-7.4-4.4c-1.5-1.7-2.2-3.9-2.2-6.6c0-2.9,1.1-5.1,3.2-6.8
			c2.2-1.7,5-2.5,8.5-2.5c3.7,0,7.1,0.7,10.2,2l-1.3,3.8c-3.1-1.3-6-1.9-8.9-1.9c-2.3,0-4.1,0.5-5.4,1.5c-1.3,1-1.9,2.3-1.9,4.1
			c0,1.3,0.2,2.3,0.7,3.2c0.5,0.8,1.3,1.6,2.4,2.3c1.1,0.7,2.8,1.4,5.2,2.3c3.9,1.4,6.6,2.9,8,4.5
			C1046.8,235.7,1047.5,237.8,1047.5,240.3z"/>
	</g>
	<polygon class="st3" points="455.5,77.5 455.5,62.9 406.7,62.9 386.2,62.9 386.2,190.5 406.7,190.5 406.7,135.6 455.5,135.6 
		455.5,121 406.7,121 406.7,77.5 	"/>
	<path class="st3" d="M553.1,188.7l21.6-0.7l-47.3-126h-23.8l-47.3,126l21.6,0.7l12.8-34h49.6L553.1,188.7z M496.2,140.1l19.3-51.5
		l19.3,51.5H496.2z"/>
	<path class="st3" d="M933.5,188.7l21.6-0.7l-47.3-126H884l-47.3,126l21.6,0.7l12.8-34h49.6L933.5,188.7z M876.6,140.1l19.3-51.5
		l19.3,51.5H876.6z"/>
	<path class="st3" d="M660.2,65.7c-3.6-1.1-7.4-1.6-11.2-1.6H613v0h-18v123.7h18h2.5h33.6c3.8,0,7.6-0.6,11.2-1.6
		c15.3-4.6,52.4-20,49.8-60.2C712.6,85.7,675.5,70.3,660.2,65.7z M686.4,125.6v0.6v3.3c0,15.1-7.6,29.2-20.3,37.4
		c-0.4,0.2-0.8,0.5-1.1,0.7c-6,3.7-13,5.6-20.1,5.6h-29.4V78.6h29.4c7.1,0,14.1,1.9,20.1,5.6c0.4,0.2,0.8,0.5,1.1,0.7
		c12.7,8.2,20.3,22.3,20.3,37.4V125.6z"/>
	<path class="st3" d="M788,130.6L788,130.6c16-0.9,24.2-8.3,28.5-15.8c6.1-10.8,5.2-24.3-2.3-34.2c-8.3-11-21.6-14.7-27.8-15.9
		c-1.8-0.4-3.7-0.5-5.5-0.5l-35.5,0v0H732v123.7h20.5V138H771c3.4,0,6.5,1.7,8.4,4.6l29,45.2h22.2
		C830.5,187.8,810.1,149.7,788,130.6z M778.5,121.2h-26V78.6h20.9c8.9,0,17.2,5,20.9,13.1c5.4,11.6-1.8,21-6.9,25.9
		C785,119.9,781.8,121.2,778.5,121.2z"/>
	<path class="st3" d="M1048.6,147.8c-3.1-10.1-11.3-18.1-24.2-24c-4.7-2.1-9.9-3.8-15.3-5l-3.2-0.7c-4-0.9-7.7-2.1-11.1-3.6
		c-8.8-3.9-14.3-8.9-16.4-14.8c-2.6-7.5,1.1-15,1.2-15.3l0.1-0.2L980,84c2.7-5.9,6.7-9.7,12.3-11.6c8.8-3,20.2-1,28.2,1.3
		c9.7,2.8,18.6,8.1,25.7,15.6l0.3,0.3V67l-1.4-0.7c-1.3-0.7-33.3-17.3-57.8-8.9c-9.8,3.4-17,10-21.5,19.8
		c-1.2,2.3-6.7,14.2-2.2,27.4c3.5,10.4,11.9,18.6,25,24.3c4.4,1.9,9.1,3.5,14.1,4.5l3.2,0.7c4.3,1,8.4,2.3,12.2,4
		c8.6,3.9,13.8,8.6,15.6,14.1c2,6.3-1.1,12.2-1.4,12.8l-0.2,0.3l-0.2,0.5c-2.7,5.9-6.7,9.7-12.3,11.6c-13,4.5-31.5-2-38.8-5
		c-3.3-1.3-6.2-3.3-8.6-5.9l-5.4-5.7v22.4l-0.1,0.1l0.1,0v0l1,0.4c3.6,1.8,22.7,10.9,41.6,10.9c0,0,0,0,0,0c5.6,0,10.8-0.8,15.4-2.4
		c9.7-3.3,17-10,21.5-19.7C1047.4,170,1052.4,159.8,1048.6,147.8z"/>
</g>
</svg>
